<svg width="20" height="24" viewBox="0 0 201 240" fill="none" xmlns="http://www.w3.org/2000/svg">
<g clip-path="url(#clip0_2_2184)">
<g opacity="0.3">
<path opacity="0.3" d="M139.81 49.24C134.343 49.2347 129.101 47.0606 125.235 43.1947C121.37 39.3288 119.195 34.0871 119.19 28.62V1.85821e-06H27.0602C23.5255 -0.00131167 20.0251 0.693768 16.759 2.04553C13.493 3.3973 10.5253 5.37928 8.02539 7.87824C5.52551 10.3772 3.54243 13.3442 2.18945 16.6097C0.836474 19.8752 0.140136 23.3753 0.140137 26.91V189.13C0.150737 196.262 2.99193 203.098 8.03955 208.136C13.0872 213.174 19.9284 216.003 27.0602 216H137.66C144.797 216 151.642 213.165 156.688 208.118C161.735 203.072 164.57 196.227 164.57 189.09V49.24H139.81Z" fill="#5B5B5B"/>
</g>
<path d="M164.57 49.24H139.81C134.343 49.2347 129.101 47.0606 125.235 43.1947C121.37 39.3288 119.195 34.0871 119.19 28.62V0L164.57 49.24Z" fill="#5B5B5B"/>
<path d="M184.09 170.6H59.0501C50.1804 170.6 42.9901 177.79 42.9901 186.659V223.939C42.9901 232.809 50.1804 240 59.0501 240H184.09C192.96 240 200.15 232.809 200.15 223.939V186.659C200.15 177.79 192.96 170.6 184.09 170.6Z" fill="#5B5B5B"/>
<path d="M83.4801 213.37V220.64H76.0001V213.37H83.4801Z" fill="white"/>
<path d="M121.08 190.78V220.64H113.8V202L107.34 220.67H101L94.5001 201.96V220.67H87.2201V190.81H96.1101L104.24 211.61L112.24 190.81L121.08 190.78Z" fill="white"/>
<path d="M133.37 190.57V220.64H126.1V190.57H133.37Z" fill="white"/>
<path d="M163.54 213.39C162.288 215.664 160.397 217.52 158.1 218.73C155.516 220.053 152.642 220.709 149.74 220.64H138.39V190.57H149.74C152.645 190.492 155.524 191.134 158.12 192.44C160.41 193.623 162.297 195.461 163.54 197.72C164.842 200.117 165.497 202.812 165.44 205.54C165.494 208.277 164.84 210.981 163.54 213.39ZM155.72 211.88C156.533 211.045 157.163 210.051 157.569 208.959C157.976 207.867 158.15 206.703 158.08 205.54C158.149 204.377 157.975 203.213 157.568 202.121C157.162 201.029 156.532 200.035 155.72 199.2C153.894 197.61 151.517 196.802 149.1 196.95H145.66V214.13H149.1C151.517 214.278 153.894 213.47 155.72 211.88Z" fill="white"/>
<path d="M120.37 131.92H109.42V87.6596C109.42 86.177 108.831 84.7552 107.783 83.7069C106.735 82.6586 105.313 82.0696 103.83 82.0696H75.8301C74.3466 82.0696 72.9238 82.6582 71.8739 83.7063C70.824 84.7543 70.2328 86.1761 70.2301 87.6596V131.92H59.2301V83.9196C59.2328 80.5186 60.5857 77.2578 62.9915 74.8539C65.3973 72.45 68.6592 71.0996 72.0602 71.0996H107.47C110.87 71.0996 114.131 72.4503 116.535 74.8545C118.939 77.2587 120.29 80.5195 120.29 83.9196L120.37 131.92Z" fill="#5B5B5B"/>
<path d="M107.39 144.899C114.559 144.899 120.37 139.088 120.37 131.919C120.37 124.751 114.559 118.939 107.39 118.939C100.221 118.939 94.41 124.751 94.41 131.919C94.41 139.088 100.221 144.899 107.39 144.899Z" fill="#5B5B5B"/>
<path d="M57.3202 144.899C64.4888 144.899 70.3002 139.088 70.3002 131.919C70.3002 124.751 64.4888 118.939 57.3202 118.939C50.1515 118.939 44.3402 124.751 44.3402 131.919C44.3402 139.088 50.1515 144.899 57.3202 144.899Z" fill="#5B5B5B"/>
</g>
<defs>
<clipPath id="clip0_2_2184">
<rect width="200.01" height="240" fill="white" transform="translate(0.140137)"/>
</clipPath>
</defs>
</svg>
